#N canvas 963 30 939 817 10;
#X declare -stdpath pduino;
#X text 318 230 [arduino-gui];
#X msg 131 180 open \$1;
#X floatatom 131 155 5 0 0 0 - - -;
#X obj 131 684 print ARDUINO.OUT;
#X msg 399 630 pinState 12;
#X text 415 292 <- select a device;
#X text 416 305 <- set GUI refresh rate;
#X text 412 418 <- set pin mode and change state;
#X text 458 157 A R D U I N O - G U I;
#X text 458 167 =====================;
#X text 417 606 <- record all arduino commands to a message box;
#X obj 185 154 tgl 15 0 empty empty empty 17 7 0 10 -262144 -1 -1 0
1;
#X obj 648 283 cnv 15 170 210 empty empty empty 20 12 0 14 -224640
-66577 0;
#X text 659 320 * UNO;
#X text 659 334 * Duemilanove;
#X text 659 349 * Diecimila;
#X text 659 362 * NG;
#X text 652 392 Supported Firmware:;
#X msg 185 180 digital 13 \$1;
#X text 457 184 [arduino-gui] is a graphical version of the common
[arduino] class. It is a wrapper with some GUI enhancements that facilitate
sending commands to the arduino board. Those commands can also be recorded
to a message box.;
#X text 737 693 Olsen Wolf;
#X msg 278 180 pinMode 3 \$1;
#X symbolatom 278 155 10 0 0 0 - - -;
#X msg 363 180 port 1 \$1;
#X floatatom 363 155 5 0 0 0 - - -;
#X obj 650 570 arduino;
#X text 450 570 For full reference \, see help of;
#X obj 265 684 print ARDUINO.INFO;
#X text 416 321 <- set analog input refresh rate;
#X text 652 451 Requires:;
#X text 659 469 * Pd >= 0.45;
#X text 659 410 * StandardFirmata;
#X text 659 424 * Any Firmata >= 2.2;
#X text 659 307 * Leonardo;
#X text 652 291 Supported Models:;
#X text 701 679 2017 \, Roman Haefeli;
#X obj 648 259 declare -stdpath pduino;
#X obj 131 251 arduino-gui;
#X obj 24 36 bng 15 250 50 0 empty empty 0 1 -6 1 10 -99865 -1 -1;
#X obj 39 36 bng 15 250 50 0 empty empty 1 1 -6 1 10 -99865 -1 -1;
#X obj 54 36 bng 15 250 50 0 empty empty 2 1 -6 1 10 -228856 -1 -1
;
#X obj 69 36 bng 15 250 50 0 empty empty 3 1 -6 1 10 -228856 -1 -1
;
#X obj 84 36 bng 15 250 50 0 empty empty 4 1 -6 1 10 -228856 -1 -1
;
#X obj 99 36 bng 15 250 50 0 empty empty 5 1 -6 1 10 -228856 -1 -1
;
#X obj 114 36 bng 15 250 50 0 empty empty 6 1 -6 1 10 -228856 -1 -1
;
#X obj 144 36 bng 15 250 50 0 empty empty 8 1 -6 1 10 -228856 -1 -1
;
#X obj 159 36 bng 15 250 50 0 empty empty 9 1 -6 1 10 -228856 -1 -1
;
#X obj 174 36 bng 15 250 50 0 empty empty 10 1 -6 1 10 -228856 -1 -1
;
#X obj 189 36 bng 15 250 50 0 empty empty 11 1 -6 1 10 -228856 -1 -1
;
#X obj 204 36 bng 15 250 50 0 empty empty 12 1 -6 1 10 -228856 -1 -1
;
#X obj 219 36 bng 15 250 50 0 empty empty 13 1 -6 1 10 -228856 -1 -1
;
#X obj 249 36 bng 15 250 50 0 empty empty 14 1 -6 1 10 -228856 -1 -1
;
#X obj 264 36 bng 15 250 50 0 empty empty 15 1 -6 1 10 -228856 -1 -1
;
#X obj 279 36 bng 15 250 50 0 empty empty 16 1 -6 1 10 -228856 -1 -1
;
#X obj 294 36 bng 15 250 50 0 empty empty 17 1 -6 1 10 -228856 -1 -1
;
#X obj 309 36 bng 15 250 50 0 empty empty 18 1 -6 1 10 -228856 -1 -1
;
#X obj 324 36 bng 15 250 50 0 empty empty 19 1 -6 1 10 -228856 -1 -1
;
#X obj 129 36 bng 15 250 50 0 empty empty 7 1 -6 1 10 -228856 -1 -1
;
#X text 248 8 A0;
#X text 268 6 .......;
#X text 134 84 <-- COMMAND;
#X msg 24 83 pinMode 10 output;
#N canvas 101 162 791 311 pinMode______________________________________
0;
#X obj 32 22 inlet;
#X obj 288 262 outlet;
#X obj 288 235 trigger bang anything;
#X obj 68 22 inlet;
#X obj 104 22 inlet;
#X obj 140 22 inlet;
#X obj 176 22 inlet;
#X obj 212 22 inlet;
#X obj 248 22 inlet;
#X obj 284 22 inlet;
#X obj 320 22 inlet;
#X obj 356 22 inlet;
#X obj 392 22 inlet;
#X obj 428 22 inlet;
#X obj 464 22 inlet;
#X obj 500 22 inlet;
#X obj 536 22 inlet;
#X obj 572 22 inlet;
#X obj 608 22 inlet;
#X obj 644 22 inlet;
#X obj 680 22 inlet;
#X obj 716 22 inlet;
#X msg 32 53 0;
#X msg 68 74 1;
#X msg 104 53 2;
#X msg 140 74 3;
#X msg 176 53 4;
#X msg 212 74 5;
#X msg 248 53 6;
#X msg 284 74 7;
#X msg 320 54 8;
#X msg 356 74 9;
#X msg 392 53 10;
#X msg 428 75 11;
#X msg 464 53 12;
#X msg 500 74 13;
#X msg 536 53 14;
#X msg 572 74 15;
#X msg 608 53 16;
#X msg 644 74 17;
#X msg 680 53 18;
#X msg 716 74 19;
#X obj 288 194 t a;
#X msg 288 214 set pinMode \$1 output;
#X connect 0 0 22 0;
#X connect 2 0 1 0;
#X connect 2 1 1 0;
#X connect 3 0 23 0;
#X connect 4 0 24 0;
#X connect 5 0 25 0;
#X connect 6 0 26 0;
#X connect 7 0 27 0;
#X connect 8 0 28 0;
#X connect 9 0 29 0;
#X connect 10 0 30 0;
#X connect 11 0 31 0;
#X connect 12 0 32 0;
#X connect 13 0 33 0;
#X connect 14 0 34 0;
#X connect 15 0 35 0;
#X connect 16 0 36 0;
#X connect 17 0 37 0;
#X connect 18 0 38 0;
#X connect 19 0 39 0;
#X connect 20 0 40 0;
#X connect 21 0 41 0;
#X connect 22 0 42 0;
#X connect 23 0 42 0;
#X connect 24 0 42 0;
#X connect 25 0 42 0;
#X connect 26 0 42 0;
#X connect 27 0 42 0;
#X connect 28 0 42 0;
#X connect 29 0 42 0;
#X connect 30 0 42 0;
#X connect 31 0 42 0;
#X connect 32 0 42 0;
#X connect 33 0 42 0;
#X connect 34 0 42 0;
#X connect 35 0 42 0;
#X connect 36 0 42 0;
#X connect 37 0 42 0;
#X connect 38 0 42 0;
#X connect 39 0 42 0;
#X connect 40 0 42 0;
#X connect 41 0 42 0;
#X connect 42 0 43 0;
#X connect 43 0 2 0;
#X restore 24 61 pd pinMode______________________________________;
#X text 323 7 A5;
#X obj 22 107 cnv 15 98 21 empty empty empty 20 12 0 14 -261234 -66577
0;
#X obj 474 14 tgl 15 0 empty empty 7 4 -6 1 10 -233017 -1 -1 0 1;
#X obj 489 14 tgl 15 0 empty empty 8 4 -6 1 10 -233017 -1 -1 1 1;
#X obj 504 14 tgl 15 0 empty empty 9 4 -6 1 10 -233017 -1 -1 1 1;
#X obj 519 14 tgl 15 0 empty empty 10 0 -6 1 10 -233017 -1 -1 1 1;
#X obj 534 14 tgl 15 0 empty empty 11 0 -6 1 10 -233017 -1 -1 0 1;
#X obj 549 14 tgl 15 0 empty empty 12 0 -6 1 10 -233017 -1 -1 0 1;
#X obj 564 14 tgl 15 0 empty empty 13 0 -6 1 10 -233017 -1 -1 0 1;
#X obj 399 14 tgl 15 0 empty empty 2 4 -6 1 10 -233017 -1 -1 0 1;
#X obj 414 14 tgl 15 0 empty empty 3 4 -6 1 10 -233017 -1 -1 0 1;
#X obj 429 14 tgl 15 0 empty empty 4 4 -6 1 10 -233017 -1 -1 0 1;
#X obj 444 14 tgl 15 0 empty empty 5 4 -6 1 10 -233017 -1 -1 0 1;
#X obj 459 14 tgl 15 0 empty empty 6 4 -6 1 10 -233017 -1 -1 0 1;
#X obj 369 14 tgl 15 0 empty empty 0 3 -6 1 10 -260818 -1 -1 0 1;
#X obj 384 14 tgl 15 0 empty empty 1 3 -6 1 10 -260818 -1 -1 0 1;
#X obj 370 15 cnv 13 13 13 empty empty Rx 0 8 0 10 -128992 -86277 0
;
#X obj 385 15 cnv 13 13 13 empty empty Tx 0 8 0 10 -128992 -13381 0
;
#X obj 594 14 tgl 15 0 empty empty 14 0 -6 1 10 -233017 -1 -1 0 1;
#X obj 609 14 tgl 15 0 empty empty 15 0 -6 1 10 -233017 -1 -1 0 1;
#X obj 624 14 tgl 15 0 empty empty 16 0 -6 1 10 -233017 -1 -1 0 1;
#X obj 639 14 tgl 15 0 empty empty 17 0 -6 1 10 -233017 -1 -1 0 1;
#X obj 654 14 tgl 15 0 empty empty 18 0 -6 1 10 -233017 -1 -1 0 1;
#X obj 669 14 tgl 15 0 empty empty 19 0 -6 1 10 -233017 -1 -1 0 1;
#X text 593 -14 A0;
#X text 668 -15 A6;
#X text 613 -16 .......;
#X text 455 66 <-- COMMAND;
#X msg 369 66 digital 8 1;
#N canvas 101 162 791 311 digital______________________________________
0;
#X obj 32 22 inlet;
#X obj 288 262 outlet;
#X obj 288 235 trigger bang anything;
#X obj 288 214 list trim;
#X obj 288 194 list prepend set digital;
#X msg 32 53 0 \$1;
#X obj 68 22 inlet;
#X msg 68 74 1 \$1;
#X obj 104 22 inlet;
#X obj 140 22 inlet;
#X msg 104 53 2 \$1;
#X msg 140 74 3 \$1;
#X obj 176 22 inlet;
#X obj 212 22 inlet;
#X obj 248 22 inlet;
#X obj 284 22 inlet;
#X msg 176 53 4 \$1;
#X msg 212 74 5 \$1;
#X msg 248 53 6 \$1;
#X msg 284 74 7 \$1;
#X obj 320 22 inlet;
#X obj 356 22 inlet;
#X obj 392 22 inlet;
#X obj 428 22 inlet;
#X obj 464 22 inlet;
#X obj 500 22 inlet;
#X obj 536 22 inlet;
#X obj 572 22 inlet;
#X msg 320 53 8 \$1;
#X msg 356 74 9 \$1;
#X msg 392 53 10 \$1;
#X msg 428 74 11 \$1;
#X msg 464 53 12 \$1;
#X msg 500 74 13 \$1;
#X msg 536 53 14 \$1;
#X msg 572 74 15 \$1;
#X obj 608 22 inlet;
#X obj 644 22 inlet;
#X obj 680 22 inlet;
#X obj 716 22 inlet;
#X msg 608 53 16 \$1;
#X msg 644 74 17 \$1;
#X msg 680 53 18 \$1;
#X msg 716 74 19 \$1;
#X connect 0 0 5 0;
#X connect 2 0 1 0;
#X connect 2 1 1 0;
#X connect 3 0 2 0;
#X connect 4 0 3 0;
#X connect 5 0 4 0;
#X connect 6 0 7 0;
#X connect 7 0 4 0;
#X connect 8 0 10 0;
#X connect 9 0 11 0;
#X connect 10 0 4 0;
#X connect 11 0 4 0;
#X connect 12 0 16 0;
#X connect 13 0 17 0;
#X connect 14 0 18 0;
#X connect 15 0 19 0;
#X connect 16 0 4 0;
#X connect 17 0 4 0;
#X connect 18 0 4 0;
#X connect 19 0 4 0;
#X connect 20 0 28 0;
#X connect 21 0 29 0;
#X connect 22 0 30 0;
#X connect 23 0 31 0;
#X connect 24 0 32 0;
#X connect 25 0 33 0;
#X connect 26 0 34 0;
#X connect 27 0 35 0;
#X connect 28 0 4 0;
#X connect 29 0 4 0;
#X connect 30 0 4 0;
#X connect 31 0 4 0;
#X connect 32 0 4 0;
#X connect 33 0 4 0;
#X connect 34 0 4 0;
#X connect 35 0 4 0;
#X connect 36 0 40 0;
#X connect 37 0 41 0;
#X connect 38 0 42 0;
#X connect 39 0 43 0;
#X connect 40 0 4 0;
#X connect 41 0 4 0;
#X connect 42 0 4 0;
#X connect 43 0 4 0;
#X restore 369 39 pd digital______________________________________
;
#X msg 14 179 digital 8 1;
#X msg 17 299 digital 8 0;
#X obj -352 39 bng 15 250 50 0 empty empty 0 1 -6 1 10 -99865 -1 -1
;
#X obj -337 39 bng 15 250 50 0 empty empty 1 1 -6 1 10 -99865 -1 -1
;
#X obj -322 39 bng 15 250 50 0 empty empty 2 1 -6 1 10 -228856 -1 -1
;
#X obj -307 39 bng 15 250 50 0 empty empty 3 1 -6 1 10 -228856 -1 -1
;
#X obj -292 39 bng 15 250 50 0 empty empty 4 1 -6 1 10 -228856 -1 -1
;
#X obj -277 39 bng 15 250 50 0 empty empty 5 1 -6 1 10 -228856 -1 -1
;
#X obj -262 39 bng 15 250 50 0 empty empty 6 1 -6 1 10 -228856 -1 -1
;
#X obj -232 39 bng 15 250 50 0 empty empty 8 1 -6 1 10 -228856 -1 -1
;
#X obj -217 39 bng 15 250 50 0 empty empty 9 1 -6 1 10 -228856 -1 -1
;
#X obj -202 39 bng 15 250 50 0 empty empty 10 1 -6 1 10 -228856 -1
-1;
#X obj -187 39 bng 15 250 50 0 empty empty 11 1 -6 1 10 -228856 -1
-1;
#X obj -172 39 bng 15 250 50 0 empty empty 12 1 -6 1 10 -228856 -1
-1;
#X obj -157 39 bng 15 250 50 0 empty empty 13 1 -6 1 10 -228856 -1
-1;
#X obj -127 39 bng 15 250 50 0 empty empty 14 1 -6 1 10 -228856 -1
-1;
#X obj -112 39 bng 15 250 50 0 empty empty 15 1 -6 1 10 -228856 -1
-1;
#X obj -97 39 bng 15 250 50 0 empty empty 16 1 -6 1 10 -228856 -1 -1
;
#X obj -82 39 bng 15 250 50 0 empty empty 17 1 -6 1 10 -228856 -1 -1
;
#X obj -67 39 bng 15 250 50 0 empty empty 18 1 -6 1 10 -228856 -1 -1
;
#X obj -52 39 bng 15 250 50 0 empty empty 19 1 -6 1 10 -228856 -1 -1
;
#X obj -247 39 bng 15 250 50 0 empty empty 7 1 -6 1 10 -228856 -1 -1
;
#X text -128 11 A0;
#X text -108 9 .......;
#X text -242 87 <-- COMMAND;
#X msg -352 86 pinMode 15 input;
#N canvas 101 162 791 311 pinMode______________________________________
0;
#X obj 32 22 inlet;
#X obj 288 262 outlet;
#X obj 68 22 inlet;
#X obj 104 22 inlet;
#X obj 140 22 inlet;
#X obj 176 22 inlet;
#X obj 212 22 inlet;
#X obj 248 22 inlet;
#X obj 284 22 inlet;
#X obj 320 22 inlet;
#X obj 356 22 inlet;
#X obj 392 22 inlet;
#X obj 428 22 inlet;
#X obj 464 22 inlet;
#X obj 500 22 inlet;
#X obj 536 22 inlet;
#X obj 572 22 inlet;
#X obj 608 22 inlet;
#X obj 644 22 inlet;
#X obj 680 22 inlet;
#X obj 716 22 inlet;
#X msg 32 53 0;
#X msg 68 74 1;
#X msg 104 53 2;
#X msg 140 74 3;
#X msg 176 53 4;
#X msg 212 74 5;
#X msg 248 53 6;
#X msg 284 74 7;
#X msg 320 54 8;
#X msg 356 74 9;
#X msg 392 53 10;
#X msg 428 75 11;
#X msg 464 53 12;
#X msg 500 74 13;
#X msg 536 53 14;
#X msg 572 74 15;
#X msg 608 53 16;
#X msg 644 74 17;
#X msg 680 53 18;
#X msg 716 74 19;
#X obj 288 194 t a;
#X msg 288 214 set pinMode \$1 input \, bang;
#X connect 0 0 21 0;
#X connect 2 0 22 0;
#X connect 3 0 23 0;
#X connect 4 0 24 0;
#X connect 5 0 25 0;
#X connect 6 0 26 0;
#X connect 7 0 27 0;
#X connect 8 0 28 0;
#X connect 9 0 29 0;
#X connect 10 0 30 0;
#X connect 11 0 31 0;
#X connect 12 0 32 0;
#X connect 13 0 33 0;
#X connect 14 0 34 0;
#X connect 15 0 35 0;
#X connect 16 0 36 0;
#X connect 17 0 37 0;
#X connect 18 0 38 0;
#X connect 19 0 39 0;
#X connect 20 0 40 0;
#X connect 21 0 41 0;
#X connect 22 0 41 0;
#X connect 23 0 41 0;
#X connect 24 0 41 0;
#X connect 25 0 41 0;
#X connect 26 0 41 0;
#X connect 27 0 41 0;
#X connect 28 0 41 0;
#X connect 29 0 41 0;
#X connect 30 0 41 0;
#X connect 31 0 41 0;
#X connect 32 0 41 0;
#X connect 33 0 41 0;
#X connect 34 0 41 0;
#X connect 35 0 41 0;
#X connect 36 0 41 0;
#X connect 37 0 41 0;
#X connect 38 0 41 0;
#X connect 39 0 41 0;
#X connect 40 0 41 0;
#X connect 41 0 42 0;
#X connect 42 0 1 0;
#X restore -352 64 pd pinMode______________________________________
;
#X text -53 10 A5;
#X obj 130 710 route digital;
#X obj 235 761 tgl 15 0 empty empty 7 4 25 1 10 -203904 -1 -1 0 1;
#X obj 250 761 tgl 15 0 empty empty 8 4 25 1 10 -203904 -1 -1 0 1;
#X obj 265 761 tgl 15 0 empty empty 9 4 25 1 10 -203904 -1 -1 0 1;
#X obj 280 761 tgl 15 0 empty empty 10 0 25 1 10 -203904 -1 -1 0 1
;
#X obj 295 761 tgl 15 0 empty empty 11 0 25 1 10 -203904 -1 -1 0 1
;
#X obj 310 761 tgl 15 0 empty empty 12 0 25 1 10 -203904 -1 -1 0 1
;
#X obj 325 761 tgl 15 0 empty empty 13 0 25 1 10 -203904 -1 -1 0 1
;
#X obj 160 761 tgl 15 0 empty empty 2 4 25 1 10 -203904 -1 -1 0 1;
#X obj 175 761 tgl 15 0 empty empty 3 4 25 1 10 -203904 -1 -1 0 1;
#X obj 190 761 tgl 15 0 empty empty 4 4 25 1 10 -203904 -1 -1 0 1;
#X obj 205 761 tgl 15 0 empty empty 5 4 25 1 10 -203904 -1 -1 0 1;
#X obj 220 761 tgl 15 0 empty empty 6 4 25 1 10 -203904 -1 -1 0 1;
#X obj 130 761 tgl 15 0 empty empty 0 3 25 1 10 -260818 -1 -1 0 1;
#X obj 145 761 tgl 15 0 empty empty 1 3 25 1 10 -260818 -1 -1 0 1;
#X obj 131 762 cnv 13 13 13 empty empty Rx 0 8 0 10 -128992 -86277
0;
#X obj 146 762 cnv 13 13 13 empty empty Tx 0 8 0 10 -128992 -13381
0;
#X obj 355 761 tgl 15 0 empty empty 14 0 25 1 10 -203904 -1 -1 0 1
;
#X obj 370 761 tgl 15 0 empty empty 15 0 25 1 10 -203904 -1 -1 0 1
;
#X obj 385 761 tgl 15 0 empty empty 16 0 25 1 10 -203904 -1 -1 0 1
;
#X obj 400 761 tgl 15 0 empty empty 17 0 25 1 10 -203904 -1 -1 0 1
;
#X obj 415 761 tgl 15 0 empty empty 18 0 25 1 10 -203904 -1 -1 0 1
;
#X obj 430 761 tgl 15 0 empty empty 19 0 25 1 10 -203904 -1 -1 0 1
;
#X obj 130 733 route 2 3 4 5 6 7 8 9 10 11 12 13 14 15 16 17 18 19
;
#X msg 191 834 1 1000 \, 0.8 1000 2000 \, 0 2000 4000;
#X obj 40 773 osc~ 440;
#X obj 59 865 dac~;
#X obj 62 821 *~;
#X obj 184 858 vline~;
#X obj 37 37;
#X obj -221 610 route analog;
#X obj -221 633 route 0 1 2 3 4 5;
#X obj -115 650 includes/analog.display;
#X text -13 646 A0;
#X text -13 662 A2;
#X text -13 678 A4;
#X obj -115 658 includes/analog.display;
#X obj -115 666 includes/analog.display;
#X obj -115 674 includes/analog.display;
#X obj -115 682 includes/analog.display;
#X obj -115 690 includes/analog.display;
#X text -13 653 ---A1;
#X text -13 669 ---A3;
#X text -13 685 ---A5;
#X obj -188 345 tgl 15 0 empty empty 2 4 -6 1 10 -233017 -1 -1 0 1
;
#X obj -173 345 tgl 15 0 empty empty 3 4 -6 1 10 -233017 -1 -1 0 1
;
#X obj -158 345 tgl 15 0 empty empty 4 4 -6 1 10 -233017 -1 -1 0 1
;
#X obj -143 345 tgl 15 0 empty empty 5 4 -6 1 10 -233017 -1 -1 0 1
;
#X obj -218 345 tgl 15 0 empty empty 0 4 -6 1 10 -233017 -1 -1 1 1
;
#X obj -203 345 tgl 15 0 empty empty 1 4 -6 1 10 -233017 -1 -1 0 1
;
#N canvas 745 233 473 189 analogIns_ 0;
#X obj 30 12 inlet;
#X obj 30 118 outlet;
#X msg 30 34 0 \$1;
#X obj 80 12 inlet;
#X msg 80 34 1 \$1;
#X obj 130 12 inlet;
#X obj 180 12 inlet;
#X obj 230 12 inlet;
#X obj 280 12 inlet;
#X msg 130 34 2 \$1;
#X msg 180 34 3 \$1;
#X msg 230 34 4 \$1;
#X msg 280 34 5 \$1;
#X msg 30 96 set analogIns \$1 \$2 \, bang;
#X connect 0 0 2 0;
#X connect 2 0 13 0;
#X connect 3 0 4 0;
#X connect 4 0 13 0;
#X connect 5 0 9 0;
#X connect 6 0 10 0;
#X connect 7 0 11 0;
#X connect 8 0 12 0;
#X connect 9 0 13 0;
#X connect 10 0 13 0;
#X connect 11 0 13 0;
#X connect 12 0 13 0;
#X connect 13 0 1 0;
#X restore -218 369 pd analogIns_;
#X msg -218 397 analogIns 0 1;
#X text 165 592 <-- COMMAND;
#N canvas 745 233 339 168 samplingInterval 0;
#X obj 30 12 inlet;
#X obj 30 118 outlet;
#X msg 30 96 set samplingInterval \$1 \, bang;
#X connect 0 0 2 0;
#X connect 2 0 1 0;
#X restore 24 563 pd samplingInterval;
#X obj 24 541 nbx 5 14 10 16383 0 0 empty empty empty 0 -8 0 10 -228856
-1 -1 15 256;
#X text 84 541 ms;
#X msg 24 591 samplingInterval 15;
#X msg -317 215 pinMode 14 analog;
#X connect 1 0 37 0;
#X connect 2 0 1 0;
#X connect 11 0 18 0;
#X connect 18 0 37 0;
#X connect 21 0 37 0;
#X connect 22 0 21 0;
#X connect 23 0 37 0;
#X connect 24 0 23 0;
#X connect 37 0 3 0;
#X connect 37 0 121 0;
#X connect 37 0 151 0;
#X connect 37 1 27 0;
#X connect 37 2 4 0;
#X connect 40 0 62 2;
#X connect 41 0 62 3;
#X connect 42 0 62 4;
#X connect 43 0 62 5;
#X connect 44 0 62 6;
#X connect 45 0 62 8;
#X connect 46 0 62 9;
#X connect 47 0 62 10;
#X connect 48 0 62 11;
#X connect 49 0 62 12;
#X connect 50 0 62 13;
#X connect 51 0 62 14;
#X connect 52 0 62 15;
#X connect 53 0 62 16;
#X connect 54 0 62 17;
#X connect 55 0 62 18;
#X connect 56 0 62 19;
#X connect 57 0 62 7;
#X connect 61 0 37 0;
#X connect 62 0 61 0;
#X connect 65 0 92 7;
#X connect 66 0 92 8;
#X connect 67 0 92 9;
#X connect 68 0 92 10;
#X connect 69 0 92 11;
#X connect 70 0 92 12;
#X connect 71 0 92 13;
#X connect 72 0 92 2;
#X connect 73 0 92 3;
#X connect 74 0 92 4;
#X connect 75 0 92 5;
#X connect 76 0 92 6;
#X connect 81 0 92 14;
#X connect 82 0 92 15;
#X connect 83 0 92 16;
#X connect 84 0 92 17;
#X connect 85 0 92 18;
#X connect 86 0 92 19;
#X connect 91 0 37 0;
#X connect 92 0 91 0;
#X connect 93 0 37 0;
#X connect 94 0 37 0;
#X connect 97 0 119 2;
#X connect 98 0 119 3;
#X connect 99 0 119 4;
#X connect 100 0 119 5;
#X connect 101 0 119 6;
#X connect 102 0 119 8;
#X connect 103 0 119 9;
#X connect 104 0 119 10;
#X connect 105 0 119 11;
#X connect 106 0 119 12;
#X connect 107 0 119 13;
#X connect 108 0 119 14;
#X connect 109 0 119 15;
#X connect 110 0 119 16;
#X connect 111 0 119 17;
#X connect 112 0 119 18;
#X connect 113 0 119 19;
#X connect 114 0 119 7;
#X connect 118 0 37 0;
#X connect 119 0 118 0;
#X connect 121 0 144 0;
#X connect 132 0 145 0;
#X connect 144 0 129 0;
#X connect 144 1 130 0;
#X connect 144 2 131 0;
#X connect 144 3 132 0;
#X connect 144 4 133 0;
#X connect 144 5 122 0;
#X connect 144 6 123 0;
#X connect 144 7 124 0;
#X connect 144 8 125 0;
#X connect 144 9 126 0;
#X connect 144 10 127 0;
#X connect 144 11 128 0;
#X connect 144 12 138 0;
#X connect 144 13 139 0;
#X connect 144 14 140 0;
#X connect 144 15 141 0;
#X connect 144 16 142 0;
#X connect 144 17 143 0;
#X connect 145 0 149 0;
#X connect 146 0 148 0;
#X connect 148 0 147 0;
#X connect 148 0 147 1;
#X connect 149 0 148 1;
#X connect 151 0 152 0;
#X connect 152 0 153 0;
#X connect 152 1 157 0;
#X connect 152 2 158 0;
#X connect 152 3 159 0;
#X connect 152 4 160 0;
#X connect 152 5 161 0;
#X connect 165 0 171 2;
#X connect 166 0 171 3;
#X connect 167 0 171 4;
#X connect 168 0 171 5;
#X connect 169 0 171 0;
#X connect 170 0 171 1;
#X connect 171 0 172 0;
#X connect 172 0 37 0;
#X connect 174 0 177 0;
#X connect 175 0 174 0;
#X connect 177 0 37 0;
#X connect 178 0 37 0;
