#N canvas 2475 1195 1018 598 12;
#X floatatom 130 121 5 0 0 0 - - -;
#X obj 128 5 bng 15 250 50 0 empty empty empty 17 7 0 10 -262144 -1
-1;
#X floatatom 130 34 5 0 0 0 - - -;
#X obj 129 87 expr $f1+$f2+$f3;
#X floatatom 183 31 5 0 0 0 - - -;
#X floatatom 239 27 5 0 0 0 - - -;
#X text 175 5 Expression;
#X obj 135 194 moses 4;
#X floatatom 135 163 5 0 0 0 - - -;
#X floatatom 118 237 5 0 0 0 - - -;
#X floatatom 190 238 5 0 0 0 - - -;
#X text 205 158 Moses;
#X obj 129 374 sel 7;
#X floatatom 175 428 5 0 0 0 - - -;
#X floatatom 115 427 5 0 0 0 - - -;
#X floatatom 132 328 5 0 0 0 - - -;
#X obj 82 417 bng 15 250 50 0 empty empty empty 17 7 0 10 -262144 -1
-1;
#X obj 127 284 bng 15 250 50 0 empty empty empty 17 7 0 10 -262144
-1 -1;
#X floatatom 36 531 5 0 0 0 - - -;
#X floatatom 85 533 5 0 0 0 - - -;
#X obj 85 498 mod 3;
#X obj 35 497 div 3;
#X floatatom 65 455 5 0 0 0 - - -;
#X obj 152 499 cos;
#X obj 197 498 sin;
#X floatatom 153 535 5 0 0 0 - - -;
#X floatatom 467 694 5 0 0 0 - - -;
#X floatatom 197 534 5 0 0 0 - - -;
#X obj 242 500 tan;
#X obj 287 500 sqrt;
#X obj 338 502 abs;
#X obj 376 503 == 7;
#X obj 421 501 > 7;
#X obj 459 500 < 7;
#X floatatom 242 533 5 0 0 0 - - -;
#X floatatom 287 534 5 0 0 0 - - -;
#X floatatom 338 534 5 0 0 0 - - -;
#X floatatom 376 569 5 0 0 0 - - -;
#X floatatom 422 531 5 0 0 0 - - -;
#X floatatom 464 567 5 0 0 0 - - -;
#X obj 51 600 random 10;
#X obj 47 560 bng 15 250 50 0 empty empty empty 17 7 0 10 -262144 -1
-1;
#X obj 51 637 + 1;
#X obj 52 670 * 440;
#X obj 155 619 osc~;
#X obj 155 661 dac~;
#X connect 1 0 2 0;
#X connect 2 0 3 0;
#X connect 3 0 0 0;
#X connect 4 0 3 1;
#X connect 5 0 3 2;
#X connect 7 0 9 0;
#X connect 7 1 10 0;
#X connect 8 0 7 0;
#X connect 12 0 14 0;
#X connect 12 0 16 0;
#X connect 12 1 13 0;
#X connect 15 0 12 0;
#X connect 17 0 15 0;
#X connect 20 0 19 0;
#X connect 21 0 18 0;
#X connect 22 0 21 0;
#X connect 22 0 20 0;
#X connect 22 0 23 0;
#X connect 22 0 24 0;
#X connect 22 0 28 0;
#X connect 22 0 29 0;
#X connect 22 0 30 0;
#X connect 22 0 31 0;
#X connect 22 0 32 0;
#X connect 22 0 33 0;
#X connect 23 0 25 0;
#X connect 24 0 27 0;
#X connect 28 0 34 0;
#X connect 29 0 35 0;
#X connect 30 0 36 0;
#X connect 31 0 37 0;
#X connect 32 0 38 0;
#X connect 33 0 39 0;
#X connect 40 0 42 0;
#X connect 41 0 40 0;
#X connect 42 0 43 0;
#X connect 43 0 44 0;
#X connect 44 0 45 0;
#X connect 44 0 45 1;
