#N canvas 1431 0 1438 1485 12;
#X obj 111 348 vline~;
#X obj 112 390 outlet~;
#X obj 103 35 inlet;
#X floatatom 107 126 5 0 0 0 - - -;
#X obj 160 36 inlet;
#X obj 23 9 inlet;
#X obj 105 80 f;
#X text 97 14 Attack;
#X text 152 13 Attack t;
#X obj 161 82 f;
#X floatatom 162 126 5 0 0 0 - - -;
#X obj 193 344 print;
#X obj 28 45 t b b b b;
#X obj 234 36 inlet;
#X floatatom 238 127 5 0 0 0 - - -;
#X obj 291 37 inlet;
#X obj 236 81 f;
#X obj 292 83 f;
#X floatatom 293 127 5 0 0 0 - - -;
#X text 228 15 Decay;
#X text 283 14 Decay t;
#X obj 353 34 inlet;
#X floatatom 357 125 5 0 0 0 - - -;
#X obj 421 37 inlet;
#X obj 355 79 f;
#X obj 422 83 f;
#X floatatom 423 127 5 0 0 0 - - -;
#X text 347 13 Sustain;
#X text 413 14 Release t;
#X obj 272 160 +;
#X obj 306 202 +;
#X obj 109 263 pack f f f f f f;
#X msg 110 305 \$1 \$2 \, \$3 \$4 \$2 \, 0 \$6 \$5;
#X connect 0 0 1 0;
#X connect 2 0 6 0;
#X connect 3 0 31 0;
#X connect 4 0 9 0;
#X connect 5 0 12 0;
#X connect 6 0 3 0;
#X connect 9 0 10 0;
#X connect 10 0 29 0;
#X connect 10 0 31 1;
#X connect 12 0 6 0;
#X connect 12 1 9 0;
#X connect 12 2 16 0;
#X connect 12 3 17 0;
#X connect 13 0 16 0;
#X connect 14 0 31 2;
#X connect 15 0 17 0;
#X connect 16 0 14 0;
#X connect 17 0 18 0;
#X connect 18 0 29 1;
#X connect 18 0 31 3;
#X connect 21 0 24 0;
#X connect 22 0 30 1;
#X connect 23 0 25 0;
#X connect 24 0 22 0;
#X connect 25 0 26 0;
#X connect 26 0 31 5;
#X connect 29 0 30 0;
#X connect 30 0 31 4;
#X connect 31 0 32 0;
#X connect 32 0 0 0;
#X connect 32 0 11 0;
