#N canvas 1430 0 1438 1484 12;
#X obj 49 26 osc~ 440;
#X obj 51 208 grapher~;
#X obj 285 208 grapher~;
#X obj 281 25 phasor~ 440;
#X obj 284 96 -~ 0.5;
#X obj 285 157 *~ 2;
#X obj 497 103 phasor~ 440;
#X obj 598 102 phasor~ -440;
#X msg 571 68 0;
#X msg 680 68 0.5;
#X obj 570 148 +~;
#X obj 570 182 -~ 1;
#X obj 511 243 grapher~;
#X obj 503 36 trigger f b b;
#X floatatom 504 9 5 0 0 0 - - -;
#X obj 528 71 * -1;
#X obj 570 211 *~ 2;
#X obj 765 108 phasor~;
#X obj 861 111 phasor~;
#X msg 877 70 0;
#X obj 822 71 * -1;
#X obj 778 41 trigger f b;
#X obj 768 152 *~ 2;
#X obj 770 181 -~ 1;
#X obj 768 225 clip~ 0 1;
#X obj 865 154 *~ 2;
#X obj 867 183 -~ 1;
#X obj 865 227 clip~ 0 1;
#X obj 831 270 +~;
#X floatatom 772 2 5 0 0 0 - - -;
#X obj 763 386 grapher~;
#X obj 830 301 -~ 0.5;
#X obj 832 337 *~ 2;
#X connect 0 0 1 0;
#X connect 3 0 4 0;
#X connect 4 0 5 0;
#X connect 5 0 2 0;
#X connect 6 0 10 0;
#X connect 7 0 10 1;
#X connect 8 0 6 1;
#X connect 9 0 7 1;
#X connect 10 0 11 0;
#X connect 11 0 16 0;
#X connect 13 0 6 0;
#X connect 13 0 15 0;
#X connect 13 1 8 0;
#X connect 13 2 9 0;
#X connect 14 0 13 0;
#X connect 15 0 7 0;
#X connect 16 0 12 0;
#X connect 17 0 22 0;
#X connect 18 0 25 0;
#X connect 19 0 17 1;
#X connect 19 0 18 1;
#X connect 20 0 18 0;
#X connect 21 0 20 0;
#X connect 21 0 17 0;
#X connect 21 1 19 0;
#X connect 22 0 23 0;
#X connect 23 0 24 0;
#X connect 24 0 28 0;
#X connect 25 0 26 0;
#X connect 26 0 27 0;
#X connect 27 0 28 1;
#X connect 28 0 31 0;
#X connect 29 0 21 0;
#X connect 31 0 32 0;
#X connect 32 0 30 0;
