#N canvas 1009 148 619 427 12;
#X msg 12 8 read -resize pajaritos.wav sound;
#N canvas 0 50 450 250 (subpatch) 0;
#X array sound 1.40009e+006 float 2;
#X coords 0 1 1.40009e+006 -1 200 140 1;
#X restore 329 19 graph;
#X obj 12 35 soundfiler;
#X obj 402 214 tabplay~ sound;
#X msg 346 180 stop;
#X obj 396 178 bng 15 250 50 0 empty empty empty 17 7 0 10 -262144
-1 -1;
#X obj 397 254 dac~;
#X obj 19 232 tabread4~ sound;
#X obj 15 168 phasor~;
#X obj 18 200 *~;
#X obj 145 91 hsl 128 15 -1 1 0 0 empty empty empty -2 -8 0 10 -262144
-1 -1 25500 1;
#X obj 21 266 dac~;
#X obj 134 166 grapher~;
#X text 236 45 31s;
#X floatatom 33 89 5 0 0 0 - - -;
#X obj 32 65 expr $f1/44100;
#X obj 33 119 expr 1/$f1;
#X obj 33 146 *;
#X floatatom 131 112 5 0 0 0 - - -;
#X msg -16 130 0;
#X obj 151 37 bng 15 250 50 0 empty empty empty 17 7 0 10 -262144 -1
-1;
#X connect 0 0 2 0;
#X connect 2 0 9 1;
#X connect 2 0 15 0;
#X connect 3 0 6 0;
#X connect 3 0 6 1;
#X connect 4 0 3 0;
#X connect 5 0 3 0;
#X connect 7 0 11 0;
#X connect 7 0 11 1;
#X connect 8 0 9 0;
#X connect 8 0 12 0;
#X connect 9 0 7 0;
#X connect 10 0 18 0;
#X connect 14 0 16 0;
#X connect 15 0 14 0;
#X connect 16 0 17 1;
#X connect 17 0 8 0;
#X connect 18 0 17 0;
#X connect 19 0 8 0;
#X connect 20 0 10 0;
#X coords 0 0 0.5 0.5 0 0 0;
