#N canvas 973 48 915 880 12;
#X obj 64 344 base~;
#X obj 32 265 bng 15 250 50 0 empty empty empty 17 7 0 10 -262144 -1
-1;
#X msg 92 263 1;
#X obj 185 284 vsl 15 128 -1 1 0 0 empty empty empty 0 -9 0 10 -262144
-1 -1 25400 1;
#X obj 61 425 dac~;
#X obj 135 339 *;
#X msg 135 299 0;
#X obj 86 305 t f f;
#X obj 57 8 udpreceive 13001;
#X obj 58 42 unpackOSC;
#X obj 9 165 routeOSC /puredata/play;
#X obj 221 63 print;
#X obj 9 214 select 0 1;
#X obj 194 164 routeOSC /puredata/pitch;
#X obj 58 70 send osc_data;
#X obj 8 132 receive osc_data;
#X floatatom 190 207 5 0 0 0 - - -;
#X obj 230 236 routeOSC /puredata/volume;
#X obj 65 389 *~;
#X connect 0 0 18 0;
#X connect 1 0 6 0;
#X connect 1 0 0 0;
#X connect 2 0 7 0;
#X connect 3 0 5 0;
#X connect 5 0 0 1;
#X connect 6 0 5 1;
#X connect 7 0 0 1;
#X connect 7 1 5 1;
#X connect 8 0 9 0;
#X connect 9 0 11 0;
#X connect 9 0 14 0;
#X connect 10 0 12 0;
#X connect 12 0 1 0;
#X connect 12 1 2 0;
#X connect 13 0 16 0;
#X connect 15 0 10 0;
#X connect 15 0 13 0;
#X connect 15 0 17 0;
#X connect 16 0 3 0;
#X connect 17 0 18 1;
#X connect 18 0 4 0;
#X connect 18 0 4 1;
