#N canvas -10 0 1385 646 12;
#X obj 257 165 osc~;
#X obj 257 210 *~;
#X obj 257 260 dac~;
#X msg 335 166 0;
#X msg 414 165 0.5;
#X msg 227 7 60;
#X msg 294 7 80;
#X obj 258 44 mtof;
#X floatatom 256 75 5 0 0 0 - - -;
#X obj 335 138 delay 1000;
#X obj 256 107 trigger float bang bang;
#X connect 0 0 1 0;
#X connect 1 0 2 0;
#X connect 1 0 2 1;
#X connect 3 0 1 1;
#X connect 4 0 1 1;
#X connect 5 0 7 0;
#X connect 6 0 7 0;
#X connect 7 0 8 0;
#X connect 8 0 10 0;
#X connect 9 0 3 0;
#X connect 10 0 0 0;
#X connect 10 1 9 0;
#X connect 10 2 4 0;
