#N canvas 637 342 1106 629 12;
#X obj 67 56 +;
#X floatatom 28 11 5 0 0 0 - - -;
#X floatatom 100 12 5 0 0 0 - - -;
#X floatatom 65 95 5 0 0 0 - - -;
#X floatatom 160 13 5 0 0 0 - - -;
#X floatatom 232 14 5 0 0 0 - - -;
#X floatatom 197 97 5 0 0 0 - - -;
#X obj 199 58 -;
#X floatatom 284 17 5 0 0 0 - - -;
#X floatatom 356 18 5 0 0 0 - - -;
#X floatatom 321 101 5 0 0 0 - - -;
#X obj 323 62 *;
#X floatatom 420 18 5 0 0 0 - - -;
#X floatatom 492 19 5 0 0 0 - - -;
#X floatatom 457 102 5 0 0 0 - - -;
#X obj 459 63 /;
#X obj 76 242 +;
#X floatatom 37 197 5 0 0 0 - - -;
#X floatatom 109 198 5 0 0 0 - - -;
#X floatatom 74 281 5 0 0 0 - - -;
#X obj 76 140 bng 15 250 50 0 empty empty empty 17 7 0 10 -262144 -1
-1;
#X connect 0 0 3 0;
#X connect 1 0 0 0;
#X connect 2 0 0 1;
#X connect 4 0 7 0;
#X connect 5 0 7 1;
#X connect 7 0 6 0;
#X connect 8 0 11 0;
#X connect 9 0 11 1;
#X connect 11 0 10 0;
#X connect 12 0 15 0;
#X connect 13 0 15 1;
#X connect 15 0 14 0;
#X connect 16 0 19 0;
#X connect 17 0 16 0;
#X connect 18 0 16 1;
#X connect 20 0 17 0;
#X connect 20 0 18 0;
