#N canvas 1725 75 1092 961 12;
#X obj 57 62 arduino;
#X obj 45 114 route analog;
#X obj 46 149 route 0;
#X floatatom 47 186 10 0 0 0 - - -;
#X msg 57 23 open 3;
#X msg 152 22 analogIns 0 1;
#X obj 155 355 udpsend;
#X obj 248 281 packOSC;
#X obj 155 396 print;
#X msg 148 262 disconnect;
#X msg 49 228 connect localhost 13000;
#X msg 246 236 send /puredata/dato \$1;
#X connect 0 0 1 0;
#X connect 1 0 2 0;
#X connect 2 0 3 0;
#X connect 3 0 11 0;
#X connect 4 0 0 0;
#X connect 5 0 0 0;
#X connect 6 0 8 0;
#X connect 7 0 6 0;
#X connect 9 0 6 0;
#X connect 10 0 6 0;
#X connect 11 0 7 0;
