#N canvas 308 405 451 452 12;
#X obj 82 102 unpackOSC;
#X floatatom 82 170 20 0 0 0 - - -;
#X obj 30 153 print;
#X obj 82 207 mtof;
#X obj 82 236 osc~;
#X obj 82 273 dac~;
#X obj 82 135 routeOSC /unity/dato;
#X obj 83 64 udpreceive 7000;
#X obj 304 213 print;
#X connect 0 0 2 0;
#X connect 0 0 6 0;
#X connect 1 0 3 0;
#X connect 3 0 4 0;
#X connect 6 0 8 0;
#X connect 7 0 0 0;
