#N canvas 2313 77 1501 1689 12;
#X obj 536 507 arduino;
#X msg 574 437 open 4;
#X obj 593 548 print;
#X msg 40 452 pinMode 8 output;
#X msg 182 452 pinMode 9 output;
#X msg 314 453 pinMode10 output;
#X msg 42 487 pinMode 14 analog;
#X msg 549 262 digital 8 1;
#X msg 653 261 digital 8 0;
#X obj 551 65 metro 500;
#X obj 554 204 select 0 1;
#X obj 555 97 f;
#X obj 556 131 + 1;
#X obj 556 168 mod 2;
#X obj 547 25 tgl 15 0 empty empty empty 17 7 0 10 -262144 -1 -1 1
1;
#X obj 610 23 hsl 128 15 0 1000 0 0 empty empty empty -2 -8 0 10 -262144
-1 -1 22800 1;
#X msg 74 282 digital 8 1;
#X msg 73 253 digital 8 0;
#X msg 190 255 digital 9 0;
#X msg 191 284 digital 9 1;
#X msg 305 256 digital 10 0;
#X msg 306 285 digital 10 1;
#X obj 66 15 metro 500;
#X obj 70 47 f;
#X obj 71 81 + 1;
#X obj 64 -90 tgl 15 0 empty empty empty 17 7 0 10 -262144 -1 -1 1
1;
#X obj 127 -12 hsl 128 15 0 1000 0 0 empty empty empty -2 -8 0 10 -262144
-1 -1 7572 1;
#X obj 66 183 t b b;
#X obj 127 183 t b b;
#X obj 184 185 t b b;
#X obj 212 340 send seq;
#X obj 470 453 receive seq;
#X obj 191 547 send config;
#X obj 470 409 receive config;
#X obj 118 402 t b b b b b b b b;
#X obj 114 365 bng 15 250 50 0 empty empty empty 17 7 0 10 -262144
-1 -1;
#X obj 388 560 route analog;
#X obj 389 595 route 0;
#X floatatom 390 632 10 0 0 0 - - -;
#X msg 189 487 analogIns 0 1;
#X obj 390 662 s vel;
#X obj 121 -71 r vel;
#X obj 123 -40 * 1000;
#X msg 324 485 pinMode 5 input;
#X msg 322 516 pinMode 6 input;
#X obj 489 561 route digital;
#X obj 489 593 route 5 6;
#X obj 488 634 bng 15 250 50 0 empty empty empty 17 7 0 10 -262144
-1 -1;
#X obj 521 635 bng 15 250 50 0 empty empty empty 17 7 0 10 -262144
-1 -1;
#X obj 490 662 s p5;
#X obj 542 662 s p6;
#X obj 143 34 r p5;
#X obj 210 36 r p6;
#X msg 143 57 0;
#X msg 210 60 1;
#X floatatom 452 696 5 0 0 0 - - -;
#X obj 238 186 t b b;
#X obj 198 226 t b b b;
#X obj 67 151 select 0 1 2 3;
#X obj 71 118 mod 4;
#X connect 0 0 36 0;
#X connect 0 0 45 0;
#X connect 0 1 2 0;
#X connect 1 0 0 0;
#X connect 3 0 32 0;
#X connect 4 0 32 0;
#X connect 5 0 32 0;
#X connect 6 0 32 0;
#X connect 9 0 11 0;
#X connect 10 0 7 0;
#X connect 10 1 8 0;
#X connect 11 0 12 0;
#X connect 12 0 13 0;
#X connect 12 0 11 1;
#X connect 13 0 10 0;
#X connect 14 0 9 0;
#X connect 15 0 9 1;
#X connect 16 0 30 0;
#X connect 17 0 30 0;
#X connect 18 0 30 0;
#X connect 19 0 30 0;
#X connect 20 0 30 0;
#X connect 21 0 30 0;
#X connect 22 0 23 0;
#X connect 23 0 24 0;
#X connect 24 0 23 1;
#X connect 24 0 59 0;
#X connect 25 0 22 0;
#X connect 26 0 22 1;
#X connect 27 0 16 0;
#X connect 27 1 57 0;
#X connect 28 0 19 0;
#X connect 28 1 57 0;
#X connect 29 0 21 0;
#X connect 29 1 57 0;
#X connect 31 0 0 0;
#X connect 33 0 0 0;
#X connect 34 0 3 0;
#X connect 34 1 4 0;
#X connect 34 2 5 0;
#X connect 34 3 6 0;
#X connect 34 4 39 0;
#X connect 34 5 43 0;
#X connect 34 6 44 0;
#X connect 35 0 34 0;
#X connect 36 0 37 0;
#X connect 37 0 38 0;
#X connect 38 0 40 0;
#X connect 39 0 32 0;
#X connect 41 0 42 0;
#X connect 42 0 26 0;
#X connect 43 0 32 0;
#X connect 44 0 32 0;
#X connect 45 0 46 0;
#X connect 46 0 47 0;
#X connect 46 0 55 0;
#X connect 46 1 48 0;
#X connect 47 0 49 0;
#X connect 48 0 50 0;
#X connect 51 0 53 0;
#X connect 52 0 54 0;
#X connect 53 0 24 1;
#X connect 54 0 24 1;
#X connect 56 0 19 0;
#X connect 56 1 57 0;
#X connect 57 0 17 0;
#X connect 57 1 18 0;
#X connect 57 2 20 0;
#X connect 58 0 27 0;
#X connect 58 1 28 0;
#X connect 58 2 29 0;
#X connect 58 3 56 0;
#X connect 59 0 58 0;
