#N canvas 487 689 1058 730 12;
#X obj 410 249 pack f f f f f f f f;
#X msg 409 289 \$1 \$2 \, \$3 \$4 \$5 \, 0 \$6 \$7;
#X obj 409 342 vline~;
#X floatatom 356 182 5 0 0 0 - - -;
#X floatatom 408 180 5 0 0 0 - - -;
#X floatatom 461 185 5 0 0 0 - - -;
#X floatatom 514 178 5 0 0 0 - - -;
#X floatatom 566 177 5 0 0 0 - - -;
#X floatatom 623 178 5 0 0 0 - - -;
#X floatatom 682 177 5 0 0 0 - - -;
#X obj 583 403 grapher~;
#X obj 418 88 trigger b b b b b b b b;
#X obj 399 27 bng 15 250 50 0 empty empty empty 17 7 0 10 -262144 -1
-1;
#X obj 196 393 unpack f f f f f f f f;
#X floatatom 160 462 5 0 0 0 - - -;
#X floatatom 212 460 5 0 0 0 - - -;
#X floatatom 265 465 5 0 0 0 - - -;
#X floatatom 318 458 5 0 0 0 - - -;
#X floatatom 370 457 5 0 0 0 - - -;
#X floatatom 427 458 5 0 0 0 - - -;
#X floatatom 486 457 5 0 0 0 - - -;
#X obj 369 334 bng 15 250 50 0 empty empty empty 17 7 0 10 -262144
-1 -1;
#X obj 407 525 snapshot~;
#X floatatom 411 564 5 0 0 0 - - -;
#X obj 296 501 metro 100;
#X obj 245 495 tgl 15 0 empty empty empty 17 7 0 10 -262144 -1 -1 1
1;
#X msg 545 347;
#X obj 705 301 print;
#X obj 341 254 print;
#X obj 632 582 timer;
#X msg 96 188 1 1000 \, 1 0 2000 \, 0 1000 3000;
#X connect 0 0 1 0;
#X connect 0 0 13 0;
#X connect 1 0 2 0;
#X connect 1 0 21 0;
#X connect 1 0 26 0;
#X connect 1 0 27 0;
#X connect 2 0 10 0;
#X connect 2 0 22 0;
#X connect 3 0 0 0;
#X connect 4 0 0 1;
#X connect 5 0 0 2;
#X connect 6 0 0 3;
#X connect 7 0 0 4;
#X connect 8 0 0 5;
#X connect 9 0 0 6;
#X connect 11 0 3 0;
#X connect 11 2 4 0;
#X connect 11 3 5 0;
#X connect 11 4 6 0;
#X connect 11 5 7 0;
#X connect 11 6 8 0;
#X connect 11 7 9 0;
#X connect 12 0 11 0;
#X connect 13 0 14 0;
#X connect 13 1 15 0;
#X connect 13 2 16 0;
#X connect 13 3 17 0;
#X connect 13 4 18 0;
#X connect 13 5 19 0;
#X connect 13 6 20 0;
#X connect 22 0 23 0;
#X connect 24 0 22 0;
#X connect 25 0 24 0;
#X connect 30 0 2 0;
#X connect 30 0 28 0;
