#N canvas 1228 148 646 377 12;
#X obj 182 12 inlet~;
#X obj 5 16 hsl 50 15 0 1 0 0 empty empty Volumen -2 -8 0 10 -4032
-1 -1 0 1;
#X obj 187 82 *~;
#X obj 187 119 dac~;
#X connect 0 0 2 0;
#X connect 1 0 2 1;
#X connect 2 0 3 0;
#X connect 2 0 3 1;
#X coords 0 -1 1 1 60 40 2 0 0;
