#N canvas 424 69 1705 841 12;
#X obj 212 239 hsl 50 15 0 1 0 0 empty empty rate -2 -8 0 10 -262144
-1 -1 1500 1;
#X obj 275 238 hsl 50 15 0 1 0 0 empty empty Depth -2 -8 0 10 -262144
-1 -1 300 1;
#X obj 228 330 osc~;
#X obj 228 359 +~ 1;
#X obj 228 391 *~ 0.5;
#X obj 240 433 *~;
#X floatatom 210 257 5 0 0 0 - - -;
#X floatatom 274 256 5 0 0 0 - - -;
#X obj 253 531 outlet~;
#X obj 225 165 inlet;
#X obj 290 165 inlet;
#X obj 373 258 * 100;
#X obj 296 402 swap 1;
#X obj 255 484 *~;
#X obj 301 442 -;
#X connect 0 0 2 0;
#X connect 0 0 6 0;
#X connect 1 0 11 0;
#X connect 1 0 5 1;
#X connect 1 0 12 0;
#X connect 2 0 3 0;
#X connect 3 0 4 0;
#X connect 4 0 5 0;
#X connect 5 0 13 0;
#X connect 9 0 0 0;
#X connect 10 0 1 0;
#X connect 11 0 7 0;
#X connect 12 0 14 0;
#X connect 12 1 14 1;
#X connect 13 0 8 0;
#X connect 14 0 13 1;
#X coords 0 -1 1 1 140 80 1 200 200;
