#N canvas 1951 1030 1735 847 12;
#X obj 17 65 osc~;
#X obj 62 34 vsl 15 128 0 1 0 0 empty empty empty 0 -9 0 10 -262144
-1 -1 17900 1;
#X floatatom 62 171 5 0 0 0 - - -;
#X obj 19 241 *~;
#X obj 107 65 osc~;
#X obj 152 34 vsl 15 128 0 1 0 0 empty empty empty 0 -9 0 10 -262144
-1 -1 14300 1;
#X floatatom 152 171 5 0 0 0 - - -;
#X obj 108 237 *~;
#X obj 20 278 +~;
#X obj 62 237 +;
#X obj 20 339 /~;
#X obj 62 200 t f f;
#X obj 154 198 t f f;
#X obj 157 273 t b f;
#X floatatom 68 309 5 0 0 0 - - -;
#X obj 20 382 dac~;
#X obj 17 3 mtof;
#X obj 107 31 * 2;
#X obj 78 5 hsl 128 15 0 127 0 0 empty empty empty -2 -8 0 10 -262144
-1 -1 7800 1;
#X obj 205 66 osc~;
#X obj 250 33 vsl 15 128 0 1 0 0 empty empty empty 0 -9 0 10 -262144
-1 -1 6200 1;
#X floatatom 250 172 5 0 0 0 - - -;
#X obj 207 230 *~;
#X obj 252 199 t f f;
#X obj 253 272 t b f;
#X obj 109 276 +~;
#X obj 205 32 * 3;
#X obj 156 234 +;
#X obj 309 64 osc~;
#X obj 353 29 vsl 15 128 0 1 0 0 empty empty empty 0 -9 0 10 -262144
-1 -1 1300 1;
#X floatatom 354 170 5 0 0 0 - - -;
#X obj 311 228 *~;
#X obj 356 197 t f f;
#X obj 357 270 t b f;
#X obj 309 30 * 4;
#X obj 211 274 +~;
#X obj 255 233 +;
#X connect 0 0 3 0;
#X connect 1 0 2 0;
#X connect 2 0 11 0;
#X connect 3 0 8 0;
#X connect 4 0 7 0;
#X connect 5 0 6 0;
#X connect 6 0 12 0;
#X connect 7 0 25 0;
#X connect 8 0 10 0;
#X connect 9 0 14 0;
#X connect 10 0 15 0;
#X connect 10 0 15 1;
#X connect 11 0 9 0;
#X connect 11 1 3 1;
#X connect 12 0 27 0;
#X connect 12 1 7 1;
#X connect 13 0 9 0;
#X connect 13 1 9 1;
#X connect 14 0 10 1;
#X connect 16 0 0 0;
#X connect 16 0 17 0;
#X connect 16 0 26 0;
#X connect 16 0 34 0;
#X connect 17 0 4 0;
#X connect 18 0 16 0;
#X connect 19 0 22 0;
#X connect 20 0 21 0;
#X connect 21 0 23 0;
#X connect 22 0 35 0;
#X connect 23 0 36 0;
#X connect 23 1 22 1;
#X connect 24 0 27 0;
#X connect 24 1 27 1;
#X connect 25 0 8 1;
#X connect 26 0 19 0;
#X connect 27 0 13 0;
#X connect 28 0 31 0;
#X connect 29 0 30 0;
#X connect 30 0 32 0;
#X connect 31 0 35 1;
#X connect 32 0 33 0;
#X connect 32 1 31 1;
#X connect 33 0 36 0;
#X connect 33 1 36 1;
#X connect 34 0 28 0;
#X connect 35 0 25 1;
#X connect 36 0 24 0;
