#N canvas 1429 780 1440 705 12;
#X obj 20 33 unpackOSC;
#X floatatom 18 105 5 0 0 0 - - -;
#X obj 21 9 udpreceive 10000;
#X obj 19 80 routeOSC /reproductor/audio;
#X obj 77 56 print;
#X msg 272 60 read -resize alarm.wav alarm;
#X msg 282 98 read -resize classroom-spontaneous-applause.wav classrom
;
#X msg 294 131 read -resize crowd-laugh.wav crowd;
#X msg 307 164 read -resize game-over.wav game;
#X msg 320 195 read -resize sweep.wav sweep;
#X msg 332 224 read -resize theatre-audience-light-applause.wav theatre
;
#X obj 298 281 soundfiler;
#N canvas 0 50 450 250 (subpatch) 0;
#X array alarm 221642 float 2;
#X coords 0 1 221642 -1 200 140 1;
#X restore 541 284 graph;
#N canvas 0 50 450 250 (subpatch) 0;
#X array classrom 288439 float 2;
#X coords 0 1 288439 -1 200 140 1;
#X restore 539 449 graph;
#N canvas 0 50 450 250 (subpatch) 0;
#X array crowd 181912 float 2;
#X coords 0 1 181912 -1 200 140 1;
#X restore 542 609 graph;
#N canvas 0 50 450 250 (subpatch) 0;
#X array game 73500 float 2;
#X coords 0 1 73500 -1 200 140 1;
#X restore 813 291 graph;
#N canvas 0 50 450 250 (subpatch) 0;
#X array sweep 34459 float 2;
#X coords 0 1 34459 -1 200 140 1;
#X restore 822 471 graph;
#N canvas 0 50 450 250 (subpatch) 0;
#X array theatre 375684 float 2;
#X coords 0 1 375684 -1 200 140 1;
#X restore 823 627 graph;
#X obj 268 30 bng 15 250 50 0 empty empty empty 17 7 0 10 -262144 -1
-1;
#X obj 19 166 select 1 2 3 4 5 6;
#X obj 19 221 tabplay~ alarm;
#X obj 38 275 tabplay~ classrom;
#X obj 61 330 tabplay~ crowd;
#X obj 80 386 tabplay~ game;
#X obj 110 441 tabplay~ sweep;
#X obj 135 499 tabplay~ theatre;
#X obj 37 562 dac~;
#X msg 19 191 0;
#X msg 39 246 0;
#X msg 57 301 0;
#X msg 79 357 0;
#X msg 111 412 0;
#X msg 135 468 0;
#X connect 0 0 3 0;
#X connect 0 0 4 0;
#X connect 1 0 19 0;
#X connect 2 0 0 0;
#X connect 3 0 1 0;
#X connect 5 0 11 0;
#X connect 6 0 11 0;
#X connect 7 0 11 0;
#X connect 8 0 11 0;
#X connect 9 0 11 0;
#X connect 10 0 11 0;
#X connect 18 0 5 0;
#X connect 18 0 6 0;
#X connect 18 0 7 0;
#X connect 18 0 8 0;
#X connect 18 0 9 0;
#X connect 18 0 10 0;
#X connect 19 0 27 0;
#X connect 19 1 28 0;
#X connect 19 2 29 0;
#X connect 19 3 30 0;
#X connect 19 4 31 0;
#X connect 19 5 32 0;
#X connect 20 0 26 0;
#X connect 20 0 26 1;
#X connect 21 0 26 0;
#X connect 21 0 26 1;
#X connect 22 0 26 0;
#X connect 22 0 26 1;
#X connect 23 0 26 0;
#X connect 23 0 26 1;
#X connect 24 0 26 0;
#X connect 24 0 26 1;
#X connect 25 0 26 0;
#X connect 25 0 26 1;
#X connect 27 0 20 0;
#X connect 28 0 21 0;
#X connect 29 0 22 0;
#X connect 30 0 23 0;
#X connect 31 0 24 0;
#X connect 32 0 25 0;
