#N canvas 1253 597 1462 1341 12;
#X obj 21 53 unpackOSC;
#X floatatom 21 122 5 0 0 0 - - -;
#X obj 21 9 udpreceive 10000;
#X obj 21 91 routeOSC /reproductor/audio;
#X obj 232 91 routeOSC /reproductor/accion/play;
#X obj 479 91 routeOSC /reproductor/accion/stop;
#N canvas 0 50 450 250 (subpatch) 0;
#X array sound 1.40009e+006 float 2;
#X coords 0 1 1.40009e+006 -1 200 140 1;
#X restore 747 50 graph;
#X obj 409 197 tabplay~ sound;
#X obj 396 143 bng 15 250 50 0 empty empty empty 17 7 0 10 -262144
-1 -1;
#X obj 404 267 dac~;
#X obj 16 285 soundfiler;
#X msg 21 194 read -resize pajaritos.wav sound;
#X floatatom 287 121 5 0 0 0 - - -;
#X msg 36 238 read -resize sonido2.wav sound;
#X obj 23 150 select 0 1 2 3 4 5;
#X msg 265 159 0;
#X obj 32 456 phasor~;
#X obj 40 528 tabread4~ sound;
#X obj 34 586 dac~;
#X obj 38 494 *~;
#X floatatom 48 374 5 0 0 0 - - -;
#X obj 47 350 expr $f1/44100;
#X obj 48 398 expr 1/$f1;
#X obj 8 325 f;
#X obj 62 313 bng 15 250 50 0 empty empty empty 17 7 0 10 -262144 -1
-1;
#X msg 7 381 0;
#X obj 396 406 grapher~;
#X obj 183 45 print;
#X floatatom 157 403 10 0 0 0 - - -;
#X connect 0 0 3 0;
#X connect 0 0 4 0;
#X connect 0 0 5 0;
#X connect 0 0 27 0;
#X connect 1 0 14 0;
#X connect 2 0 0 0;
#X connect 3 0 1 0;
#X connect 4 0 12 0;
#X connect 5 1 25 0;
#X connect 7 0 9 0;
#X connect 7 0 9 1;
#X connect 8 0 15 0;
#X connect 8 0 23 0;
#X connect 10 0 23 0;
#X connect 10 0 24 0;
#X connect 11 0 10 0;
#X connect 12 0 8 0;
#X connect 13 0 10 0;
#X connect 14 0 11 0;
#X connect 14 1 13 0;
#X connect 16 0 19 0;
#X connect 16 0 26 0;
#X connect 17 0 18 0;
#X connect 17 0 18 1;
#X connect 19 0 17 0;
#X connect 20 0 22 0;
#X connect 21 0 20 0;
#X connect 22 0 16 0;
#X connect 23 0 21 0;
#X connect 23 0 28 0;
#X connect 25 0 16 0;
