#N canvas 1709 1137 1560 606 12;
#X obj 147 163 unpackOSC;
#X obj 147 201 routeOSC /puredata/dato;
#X floatatom 147 232 5 0 0 0 - - -;
#X obj 147 119 udpreceive 10000;
#X connect 0 0 1 0;
#X connect 1 0 2 0;
#X connect 3 0 0 0;
