#N canvas 316 1007 1618 932 12;
#X obj 80 146 lop~ 1000;
#X obj 290 169 grapher~;
#X obj 289 15 grapher~;
#X obj 72 77 osc~;
#X obj 81 23 hsl 128 15 1 10000 0 0 empty empty empty -2 -8 0 10 -262144
-1 -1 25500 1;
#X floatatom 73 48 5 0 0 0 - - -;
#X obj 90 348 dac~;
#X obj 83 185 lop~ 1000;
#X obj 293 320 grapher~;
#X obj 297 654 grapher~;
#X obj 296 500 grapher~;
#X obj 79 562 osc~;
#X obj 88 508 hsl 128 15 1 10000 0 0 empty empty empty -2 -8 0 10 -262144
-1 -1 800 1;
#X floatatom 80 533 5 0 0 0 - - -;
#X obj 97 833 dac~;
#X obj 300 805 grapher~;
#X obj 90 670 hip~ 1000;
#X obj 87 631 hip~ 1000;
#X obj 303 1155 grapher~;
#X obj 302 1001 grapher~;
#X obj 85 1063 osc~;
#X obj 90 1009 hsl 128 15 1 10000 0 0 empty empty empty -2 -8 0 10
-262144 -1 -1 25500 1;
#X floatatom 86 1034 5 0 0 0 - - -;
#X obj 103 1334 dac~;
#X obj 306 1306 grapher~;
#X obj 93 1132 bp~ 1000 5;
#X obj 96 1171 bp~ 1000 5;
#X connect 0 0 1 0;
#X connect 0 0 7 0;
#X connect 3 0 0 0;
#X connect 3 0 2 0;
#X connect 4 0 5 0;
#X connect 5 0 3 0;
#X connect 7 0 8 0;
#X connect 11 0 17 0;
#X connect 11 0 10 0;
#X connect 12 0 13 0;
#X connect 13 0 11 0;
#X connect 16 0 15 0;
#X connect 17 0 16 0;
#X connect 17 0 9 0;
#X connect 20 0 25 0;
#X connect 20 0 19 0;
#X connect 21 0 22 0;
#X connect 22 0 20 0;
#X connect 25 0 26 0;
#X connect 25 0 18 0;
#X connect 26 0 24 0;
