#N canvas 1544 226 1462 920 12;
#X obj 21 53 unpackOSC;
#X floatatom 21 122 5 0 0 0 - - -;
#X obj 21 9 udpreceive 10000;
#X obj 21 91 routeOSC /reproductor/audio;
#X obj 232 91 routeOSC /reproductor/accion/play;
#X obj 479 91 routeOSC /reproductor/accion/stop;
#N canvas 0 50 450 250 (subpatch) 0;
#X array sound 1.40009e+006 float 2;
#X coords 0 1 1.40009e+006 -1 200 140 1;
#X restore 747 50 graph;
#X obj 409 197 tabplay~ sound;
#X obj 396 143 bng 15 250 50 0 empty empty empty 17 7 0 10 -262144
-1 -1;
#X msg 506 141 stop;
#X obj 404 267 dac~;
#X obj 391 437 print;
#X obj 20 332 soundfiler;
#X msg 21 194 read -resize pajaritos.wav sound;
#X floatatom 287 121 5 0 0 0 - - -;
#X msg 340 169 bang;
#X msg 36 238 read -resize sonido2.wav sound;
#X obj 23 150 select 0 1 2 3 4 5;
#X msg 265 159 0;
#X obj 655 344 phasor~;
#X obj 663 392 tabread4~ sound;
#X obj 657 450 dac~;
#X msg 636 256 44100;
#X connect 0 0 3 0;
#X connect 0 0 4 0;
#X connect 0 0 5 0;
#X connect 0 0 11 0;
#X connect 1 0 17 0;
#X connect 2 0 0 0;
#X connect 3 0 1 0;
#X connect 4 0 14 0;
#X connect 5 1 9 0;
#X connect 7 0 10 0;
#X connect 7 0 10 1;
#X connect 8 0 18 0;
#X connect 9 0 7 0;
#X connect 13 0 12 0;
#X connect 14 0 8 0;
#X connect 15 0 7 0;
#X connect 16 0 12 0;
#X connect 17 0 13 0;
#X connect 17 1 16 0;
#X connect 18 0 7 0;
#X connect 19 0 20 0;
#X connect 20 0 21 0;
#X connect 20 0 21 1;
#X connect 22 0 19 0;
