#N canvas 953 0 958 988 12;
#X obj 198 4 key;
#X floatatom 198 31 3 0 0 0 - - -;
#X msg 3 24 connect localhost 13000;
#X obj 31 120 udpsend;
#X obj 32 159 print;
#X msg 39 73 disconnect;
#X obj 113 233 packOSC;
#X text 245 203 w=119;
#X text 207 221 a=97;
#X text 248 223 s=115;
#X text 299 220 d=100;
#X obj 198 59 select 119 97 115 100;
#X msg 201 121 send /coordinates/up 1;
#X msg 117 152 send /coordinates/left 1;
#X msg 312 152 send /coordinates/right 1;
#X msg 216 184 send /coordinates/down 1;
#X obj 43 506 udpreceive 13001;
#X obj 44 540 unpackOSC;
#X obj 43 572 routeOSC /puredata/freq;
#X floatatom 44 606 5 0 0 0 - - -;
#X obj 117 654 vline~;
#X obj 44 645 osc~;
#X obj 47 715 dac~;
#X obj 47 680 *~;
#X msg 140 618 1 200 \, 0 200 100;
#X msg 89 299 send /coordinates/x \$1;
#X msg 285 307 send /coordinates/y \$1;
#X obj 259 265 vsl 15 128 0 500 0 0 empty empty empty 0 -9 0 10 -262144
-1 -1 5800 1;
#X obj 90 270 hsl 128 15 0 500 0 0 empty empty empty -2 -8 0 10 -262144
-1 -1 10900 1;
#X obj 92 362 packOSC;
#X connect 0 0 1 0;
#X connect 1 0 11 0;
#X connect 2 0 3 0;
#X connect 3 0 4 0;
#X connect 5 0 3 0;
#X connect 6 0 3 0;
#X connect 11 0 12 0;
#X connect 11 1 13 0;
#X connect 11 2 15 0;
#X connect 11 3 14 0;
#X connect 12 0 6 0;
#X connect 13 0 6 0;
#X connect 14 0 6 0;
#X connect 15 0 6 0;
#X connect 16 0 17 0;
#X connect 17 0 18 0;
#X connect 18 0 19 0;
#X connect 19 0 21 0;
#X connect 19 0 24 0;
#X connect 20 0 23 1;
#X connect 21 0 23 0;
#X connect 23 0 22 0;
#X connect 23 0 22 1;
#X connect 24 0 20 0;
#X connect 25 0 29 0;
#X connect 26 0 29 0;
#X connect 27 0 26 0;
#X connect 28 0 25 0;
#X connect 29 0 3 0;
